# Blender 3.3.1
# www.blender.org
mtllib gem.mtl
o Diamond.001
v 1.000000 -0.117857 -0.000000
v 0.000000 -0.917857 -0.000000
v 0.500000 -0.117857 -0.866025
v 0.500000 -0.117857 0.866025
v -0.500000 -0.117857 0.866026
v -1.000000 -0.117857 -0.000000
v -0.500000 -0.117857 -0.866026
v 0.600000 0.232143 0.000000
v 0.300000 0.232143 -0.519615
v 0.300000 0.232143 0.519615
v -0.300000 0.232143 0.519615
v -0.600000 0.232143 0.000000
v -0.300000 0.232143 -0.519615
v 0.000000 0.232143 0.000000
vn 0.5876 -0.7346 -0.3393
vn 0.5876 -0.7346 0.3393
vn -0.0000 -0.7346 0.6786
vn -0.5876 -0.7346 0.3393
vn -0.5876 -0.7346 -0.3393
vn -0.0000 -0.7346 -0.6786
vn 0.6155 0.7035 -0.3554
vn 0.6155 0.7035 0.3554
vn -0.0000 0.7035 0.7107
vn -0.6155 0.7035 0.3554
vn -0.6155 0.7035 -0.3554
vn -0.0000 0.7035 -0.7107
vn -0.0000 1.0000 -0.0000
s 1
usemtl None
f 1//1 2//1 3//1
f 2//2 1//2 4//2
f 2//3 4//3 5//3
f 2//4 5//4 6//4
f 2//5 6//5 7//5
f 2//6 7//6 3//6
f 8//7 1//7 3//7 9//7
f 1//8 8//8 10//8 4//8
f 4//9 10//9 11//9 5//9
f 5//10 11//10 12//10 6//10
f 6//11 12//11 13//11 7//11
f 7//12 13//12 9//12 3//12
f 14//13 8//13 9//13
f 8//13 14//13 10//13
f 10//13 14//13 11//13
f 11//13 14//13 12//13
f 12//13 14//13 13//13
f 13//13 14//13 9//13
